<?xml version="1.0" standalone="no"?>
<!DOCTYPE svg PUBLIC "-//W3C//DTD SVG 20010904//EN"
 "http://www.w3.org/TR/2001/REC-SVG-20010904/DTD/svg10.dtd">
<svg version="1.0" xmlns="http://www.w3.org/2000/svg"
 width="512.000000pt" height="512.000000pt" viewBox="0 0 512.000000 512.000000"
 preserveAspectRatio="xMidYMid meet">

<g transform="translate(0.000000,512.000000) scale(0.100000,-0.100000)"
fill="#000000" stroke="none">
<path d="M2485 5114 c-488 -51 -832 -193 -1090 -448 -114 -114 -179 -202 -249
-336 -117 -229 -164 -459 -153 -750 12 -298 75 -500 229 -732 117 -177 402
-428 485 -428 39 0 89 40 98 79 10 48 -10 76 -109 150 -325 241 -482 529 -502
921 -23 448 139 817 467 1060 315 234 837 338 1333 265 272 -40 578 -146 680
-235 48 -42 56 -91 56 -323 -1 -172 -8 -269 -22 -283 -3 -2 -88 38 -189 89
-196 100 -390 171 -555 203 -135 27 -411 25 -519 -4 -308 -83 -474 -289 -475
-586 0 -169 48 -282 175 -412 130 -133 257 -206 680 -394 601 -267 831 -425
1003 -689 130 -198 181 -385 182 -655 0 -388 -120 -696 -370 -947 -235 -236
-571 -386 -990 -441 -143 -19 -491 -16 -630 6 -391 59 -778 213 -866 344 -36
52 -47 153 -41 356 6 193 12 235 33 243 8 3 64 -25 126 -62 168 -99 323 -171
487 -225 213 -71 384 -100 590 -100 447 0 764 199 845 531 20 83 21 246 1 322
-27 105 -71 176 -169 273 -50 49 -125 112 -166 139 -111 73 -315 175 -349 175
-38 0 -88 -42 -96 -81 -14 -61 7 -83 141 -153 168 -88 257 -147 330 -220 86
-86 116 -149 122 -255 20 -368 -276 -563 -791 -522 -281 22 -593 131 -857 299
-94 60 -150 82 -210 82 -112 -1 -181 -60 -216 -187 -16 -57 -19 -105 -19 -298
0 -259 9 -320 60 -412 92 -167 444 -337 875 -423 518 -103 1085 -41 1505 164
402 197 690 535 799 937 77 282 75 656 -5 904 -36 115 -112 264 -184 365 -55
76 -202 228 -280 291 -147 117 -410 261 -770 419 -306 135 -471 222 -561 295
-133 108 -184 200 -184 336 0 157 74 277 214 343 99 48 169 60 326 60 241 -1
424 -53 746 -216 181 -90 208 -101 256 -101 60 0 100 17 140 60 62 65 79 157
78 435 0 252 -12 327 -64 403 -47 68 -101 107 -231 170 -173 83 -383 145 -615
180 -101 16 -450 28 -535 19z"/>
<path d="M2033 2376 c-23 -20 -28 -32 -28 -70 0 -36 6 -51 28 -73 61 -61 167
-15 167 73 0 81 -103 125 -167 70z"/>
</g>
</svg>
